solid ascii
  facet normal 5.101461e-015 2.945329e-015 -1.000000e+000
    outer loop
      vertex   1.700000e+001 1.116736e+002 0.000000e+000
      vertex   5.900093e+001 4.375075e+001 1.421085e-014
      vertex   5.482247e+001 4.616319e+001 0.000000e+000
    endloop
  endfacet
  facet normal -9.460037e-017 -8.290376e-001 5.591928e-001
    outer loop
      vertex   1.700000e+001 5.015858e+001 9.500000e+000
      vertex   -2.500093e+001 4.375075e+001 0.000000e+000
      vertex   5.900093e+001 4.375075e+001 1.421085e-014
    endloop
  endfacet
  facet normal -0.000000e+000 0.000000e+000 -1.000000e+000
    outer loop
      vertex   1.700000e+001 1.116736e+002 0.000000e+000
      vertex   -2.082247e+001 4.616319e+001 0.000000e+000
      vertex   -2.500093e+001 4.375075e+001 0.000000e+000
    endloop
  endfacet
  facet normal -9.526251e-015 5.890672e-015 -1.000000e+000
    outer loop
      vertex   1.700000e+001 1.164985e+002 2.842171e-014
      vertex   1.700000e+001 1.116736e+002 0.000000e+000
      vertex   -2.500093e+001 4.375075e+001 0.000000e+000
    endloop
  endfacet
  facet normal 1.691731e-016 -5.597655e-015 -1.000000e+000
    outer loop
      vertex   5.900093e+001 4.375075e+001 1.421085e-014
      vertex   -2.500093e+001 4.375075e+001 0.000000e+000
      vertex   5.482247e+001 4.616319e+001 0.000000e+000
    endloop
  endfacet
  facet normal 0.000000e+000 0.000000e+000 -1.000000e+000
    outer loop
      vertex   5.482247e+001 4.616319e+001 0.000000e+000
      vertex   -2.500093e+001 4.375075e+001 0.000000e+000
      vertex   -2.082247e+001 4.616319e+001 0.000000e+000
    endloop
  endfacet
  facet normal -7.179676e-001 4.145188e-001 5.591929e-001
    outer loop
      vertex   1.548878e+000 7.692071e+001 9.500000e+000
      vertex   -2.500093e+001 4.375075e+001 0.000000e+000
      vertex   -2.803556e+000 5.656641e+001 1.900000e+001
    endloop
  endfacet
  facet normal 9.864608e-015 5.890679e-015 -1.000000e+000
    outer loop
      vertex   1.700000e+001 1.164985e+002 2.842171e-014
      vertex   5.900093e+001 4.375075e+001 1.421085e-014
      vertex   1.700000e+001 1.116736e+002 0.000000e+000
    endloop
  endfacet
  facet normal -7.179909e-001 -4.145322e-001 -5.591530e-001
    outer loop
      vertex   3.590684e+001 7.891587e+001 7.519794e-003
      vertex   1.700000e+001 1.116533e+002 1.503959e-002
      vertex   1.700000e+001 1.116736e+002 0.000000e+000
    endloop
  endfacet
  facet normal -7.179059e-001 -4.144832e-001 -5.592985e-001
    outer loop
      vertex   3.590684e+001 7.891587e+001 7.519794e-003
      vertex   1.700000e+001 1.116736e+002 0.000000e+000
      vertex   5.482247e+001 4.616319e+001 0.000000e+000
    endloop
  endfacet
  facet normal -7.179560e-001 -4.145121e-001 -5.592128e-001
    outer loop
      vertex   3.590684e+001 7.891587e+001 7.519794e-003
      vertex   5.482247e+001 4.616319e+001 0.000000e+000
      vertex   5.480490e+001 4.617333e+001 1.503959e-002
    endloop
  endfacet
  facet normal 0.000000e+000 -8.290377e-001 5.591928e-001
    outer loop
      vertex   1.700000e+001 5.015858e+001 9.500000e+000
      vertex   -2.803556e+000 5.656641e+001 1.900000e+001
      vertex   -2.500093e+001 4.375075e+001 0.000000e+000
    endloop
  endfacet
  facet normal 7.179560e-001 -4.145120e-001 -5.592129e-001
    outer loop
      vertex   -1.906843e+000 7.891587e+001 7.519794e-003
      vertex   -2.080490e+001 4.617333e+001 1.503959e-002
      vertex   -2.082247e+001 4.616319e+001 0.000000e+000
    endloop
  endfacet
  facet normal -7.179676e-001 4.145188e-001 5.591928e-001
    outer loop
      vertex   1.548878e+000 7.692071e+001 9.500000e+000
      vertex   1.700000e+001 1.164985e+002 2.842171e-014
      vertex   -2.500093e+001 4.375075e+001 0.000000e+000
    endloop
  endfacet
  facet normal 7.179909e-001 -4.145322e-001 -5.591531e-001
    outer loop
      vertex   -1.906843e+000 7.891587e+001 7.519794e-003
      vertex   1.700000e+001 1.116736e+002 0.000000e+000
      vertex   1.700000e+001 1.116533e+002 1.503959e-002
    endloop
  endfacet
  facet normal 4.181288e-008 8.290644e-001 -5.591531e-001
    outer loop
      vertex   1.700000e+001 4.616826e+001 7.519794e-003
      vertex   5.480490e+001 4.617333e+001 1.503959e-002
      vertex   5.482247e+001 4.616319e+001 0.000000e+000
    endloop
  endfacet
  facet normal 0.000000e+000 8.289670e-001 -5.592976e-001
    outer loop
      vertex   1.700000e+001 4.616826e+001 7.519794e-003
      vertex   5.482247e+001 4.616319e+001 0.000000e+000
      vertex   -2.082247e+001 4.616319e+001 0.000000e+000
    endloop
  endfacet
  facet normal -4.182349e-008 8.290644e-001 -5.591531e-001
    outer loop
      vertex   1.700000e+001 4.616826e+001 7.519794e-003
      vertex   -2.082247e+001 4.616319e+001 0.000000e+000
      vertex   -2.080490e+001 4.617333e+001 1.503959e-002
    endloop
  endfacet
  facet normal 7.179059e-001 -4.144832e-001 -5.592985e-001
    outer loop
      vertex   -1.906843e+000 7.891587e+001 7.519794e-003
      vertex   -2.082247e+001 4.616319e+001 0.000000e+000
      vertex   1.700000e+001 1.116736e+002 0.000000e+000
    endloop
  endfacet
  facet normal 0.000000e+000 -8.290377e-001 5.591929e-001
    outer loop
      vertex   1.700000e+001 5.015858e+001 9.500000e+000
      vertex   5.900093e+001 4.375075e+001 1.421085e-014
      vertex   3.680355e+001 5.656641e+001 1.900000e+001
    endloop
  endfacet
  facet normal 7.179676e-001 4.145188e-001 5.591930e-001
    outer loop
      vertex   3.245112e+001 7.692071e+001 9.500000e+000
      vertex   3.680355e+001 5.656641e+001 1.900000e+001
      vertex   5.900093e+001 4.375075e+001 1.421085e-014
    endloop
  endfacet
  facet normal 7.179676e-001 4.145189e-001 5.591928e-001
    outer loop
      vertex   3.245112e+001 7.692071e+001 9.500000e+000
      vertex   5.900093e+001 4.375075e+001 1.421085e-014
      vertex   1.700000e+001 1.164985e+002 2.842171e-014
    endloop
  endfacet
  facet normal 7.179677e-001 4.145188e-001 5.591928e-001
    outer loop
      vertex   3.245112e+001 7.692071e+001 9.500000e+000
      vertex   1.700000e+001 1.164985e+002 2.842171e-014
      vertex   1.700000e+001 9.086718e+001 1.900000e+001
    endloop
  endfacet
  facet normal -7.179676e-001 4.145188e-001 5.591928e-001
    outer loop
      vertex   1.548878e+000 7.692071e+001 9.500000e+000
      vertex   1.700000e+001 9.086718e+001 1.900000e+001
      vertex   1.700000e+001 1.164985e+002 2.842171e-014
    endloop
  endfacet
  facet normal 7.180874e-001 -4.145879e-001 -5.589878e-001
    outer loop
      vertex   -1.906843e+000 7.891587e+001 7.519794e-003
      vertex   1.700000e+001 1.116533e+002 1.503959e-002
      vertex   -2.080490e+001 4.617333e+001 1.503959e-002
    endloop
  endfacet
  facet normal -7.180159e-001 -4.145467e-001 -5.591102e-001
    outer loop
      vertex   3.590684e+001 7.891587e+001 7.519794e-003
      vertex   5.480490e+001 4.617333e+001 1.503959e-002
      vertex   1.700000e+001 1.116533e+002 1.503959e-002
    endloop
  endfacet
  facet normal 0.000000e+000 8.291619e-001 -5.590085e-001
    outer loop
      vertex   1.700000e+001 4.616826e+001 7.519794e-003
      vertex   -2.080490e+001 4.617333e+001 1.503959e-002
      vertex   5.480490e+001 4.617333e+001 1.503959e-002
    endloop
  endfacet
  facet normal 7.440843e-001 -4.295973e-001 -5.116491e-001
    outer loop
      vertex   2.992982e+000 7.608695e+001 9.507520e+000
      vertex   -1.223170e+000 5.747885e+001 1.900000e+001
      vertex   -2.080490e+001 4.617333e+001 1.503959e-002
    endloop
  endfacet
  facet normal -7.440843e-001 -4.295972e-001 -5.116491e-001
    outer loop
      vertex   3.100702e+001 7.608695e+001 9.507520e+000
      vertex   1.700000e+001 8.904230e+001 1.900000e+001
      vertex   1.700000e+001 1.116533e+002 1.503959e-002
    endloop
  endfacet
  facet normal -7.440842e-001 -4.295972e-001 -5.116494e-001
    outer loop
      vertex   3.100702e+001 7.608695e+001 9.507520e+000
      vertex   1.700000e+001 1.116533e+002 1.503959e-002
      vertex   5.480490e+001 4.617333e+001 1.503959e-002
    endloop
  endfacet
  facet normal -7.440843e-001 -4.295973e-001 -5.116490e-001
    outer loop
      vertex   3.100702e+001 7.608695e+001 9.507520e+000
      vertex   5.480490e+001 4.617333e+001 1.503959e-002
      vertex   3.522317e+001 5.747885e+001 1.900000e+001
    endloop
  endfacet
  facet normal 7.440842e-001 -4.295972e-001 -5.116492e-001
    outer loop
      vertex   2.992982e+000 7.608695e+001 9.507520e+000
      vertex   -2.080490e+001 4.617333e+001 1.503959e-002
      vertex   1.700000e+001 1.116533e+002 1.503959e-002
    endloop
  endfacet
  facet normal 0.000000e+000 8.591945e-001 -5.116491e-001
    outer loop
      vertex   1.700000e+001 5.182609e+001 9.507520e+000
      vertex   5.480490e+001 4.617333e+001 1.503959e-002
      vertex   -2.080490e+001 4.617333e+001 1.503959e-002
    endloop
  endfacet
  facet normal 0.000000e+000 8.591945e-001 -5.116491e-001
    outer loop
      vertex   1.700000e+001 5.182609e+001 9.507520e+000
      vertex   -2.080490e+001 4.617333e+001 1.503959e-002
      vertex   -1.223170e+000 5.747885e+001 1.900000e+001
    endloop
  endfacet
  facet normal 0.000000e+000 8.591945e-001 -5.116492e-001
    outer loop
      vertex   1.700000e+001 5.182609e+001 9.507520e+000
      vertex   3.522317e+001 5.747885e+001 1.900000e+001
      vertex   5.480490e+001 4.617333e+001 1.503959e-002
    endloop
  endfacet
  facet normal 7.440843e-001 -4.295972e-001 -5.116491e-001
    outer loop
      vertex   2.992982e+000 7.608695e+001 9.507520e+000
      vertex   1.700000e+001 1.116533e+002 1.503959e-002
      vertex   1.700000e+001 8.904230e+001 1.900000e+001
    endloop
  endfacet
  facet normal 7.179676e-001 4.145187e-001 5.591929e-001
    outer loop
      vertex   3.245112e+001 7.692071e+001 9.500000e+000
      vertex   1.700000e+001 9.086718e+001 1.900000e+001
      vertex   3.680355e+001 5.656641e+001 1.900000e+001
    endloop
  endfacet
  facet normal -7.179677e-001 4.145188e-001 5.591929e-001
    outer loop
      vertex   1.548878e+000 7.692071e+001 9.500000e+000
      vertex   -2.803556e+000 5.656641e+001 1.900000e+001
      vertex   1.700000e+001 9.086718e+001 1.900000e+001
    endloop
  endfacet
  facet normal 0.000000e+000 -8.290377e-001 5.591928e-001
    outer loop
      vertex   1.700000e+001 5.015858e+001 9.500000e+000
      vertex   3.680355e+001 5.656641e+001 1.900000e+001
      vertex   -2.803556e+000 5.656641e+001 1.900000e+001
    endloop
  endfacet
  facet normal 7.440843e-001 -4.295973e-001 -5.116490e-001
    outer loop
      vertex   2.992982e+000 7.608695e+001 9.507520e+000
      vertex   1.700000e+001 8.904230e+001 1.900000e+001
      vertex   -1.223170e+000 5.747885e+001 1.900000e+001
    endloop
  endfacet
  facet normal 0.000000e+000 8.591944e-001 -5.116491e-001
    outer loop
      vertex   1.700000e+001 5.182609e+001 9.507520e+000
      vertex   -1.223170e+000 5.747885e+001 1.900000e+001
      vertex   3.522317e+001 5.747885e+001 1.900000e+001
    endloop
  endfacet
  facet normal -7.440844e-001 -4.295973e-001 -5.116489e-001
    outer loop
      vertex   3.100702e+001 7.608695e+001 9.507520e+000
      vertex   3.522317e+001 5.747885e+001 1.900000e+001
      vertex   1.700000e+001 8.904230e+001 1.900000e+001
    endloop
  endfacet
  facet normal -0.000000e+000 0.000000e+000 1.000000e+000
    outer loop
      vertex   3.522317e+001 5.747885e+001 1.900000e+001
      vertex   -1.223170e+000 5.747885e+001 1.900000e+001
      vertex   -2.803556e+000 5.656641e+001 1.900000e+001
    endloop
  endfacet
  facet normal 0.000000e+000 0.000000e+000 1.000000e+000
    outer loop
      vertex   1.700000e+001 8.904230e+001 1.900000e+001
      vertex   -2.803556e+000 5.656641e+001 1.900000e+001
      vertex   -1.223170e+000 5.747885e+001 1.900000e+001
    endloop
  endfacet
  facet normal 0.000000e+000 0.000000e+000 1.000000e+000
    outer loop
      vertex   3.680355e+001 5.656641e+001 1.900000e+001
      vertex   1.700000e+001 8.904230e+001 1.900000e+001
      vertex   3.522317e+001 5.747885e+001 1.900000e+001
    endloop
  endfacet
  facet normal 0.000000e+000 0.000000e+000 1.000000e+000
    outer loop
      vertex   3.680355e+001 5.656641e+001 1.900000e+001
      vertex   3.522317e+001 5.747885e+001 1.900000e+001
      vertex   -2.803556e+000 5.656641e+001 1.900000e+001
    endloop
  endfacet
  facet normal -0.000000e+000 0.000000e+000 1.000000e+000
    outer loop
      vertex   1.700000e+001 9.086718e+001 1.900000e+001
      vertex   1.700000e+001 8.904230e+001 1.900000e+001
      vertex   3.680355e+001 5.656641e+001 1.900000e+001
    endloop
  endfacet
  facet normal 0.000000e+000 0.000000e+000 1.000000e+000
    outer loop
      vertex   1.700000e+001 9.086718e+001 1.900000e+001
      vertex   -2.803556e+000 5.656641e+001 1.900000e+001
      vertex   1.700000e+001 8.904230e+001 1.900000e+001
    endloop
  endfacet
endsolid
